<svg width="32" height="32" viewBox="0 0 32 32" fill="none" xmlns="http://www.w3.org/2000/svg">
<path d="M17.1761 17.0394L12.2472 25.5029L7.3184 17.0394H17.1761ZM18.4965 16.283H5.99265L12.2472 26.9999L18.4965 16.283Z" fill="#263238"/>
<path d="M25.7454 6.51285L30.6742 14.9763H20.8166L25.7454 6.51285ZM25.7454 5L19.4908 15.7169H32L25.7454 5Z" fill="#263238"/>
<path d="M0 5L5.24426 14.4791L10.9749 5.23802L0 5Z" fill="#4CAF4F"/>
<path d="M12.2473 5.83032L17.7482 15.2565H6.73581L12.2473 5.83032Z" fill="#4CAF4F"/>
<path d="M19.1648 17.3145L24.671 26.9999H13.3967L18.9937 17.3145H19.1648Z" fill="#4CAF4F"/>
<path d="M20.3569 16.7273L25.7454 26.2646L31.2089 16.7273H20.3569Z" fill="#4CAF4F"/>
</svg>
