<svg width="48" height="48" viewBox="0 0 48 48" fill="none" xmlns="http://www.w3.org/2000/svg">
<path d="M9.74988 8H38.2499C39.9075 8 41.4967 8.65895 42.6688 9.83105C43.8409 11.0032 44.4999 12.5924 44.4999 14.25V33.75C44.4999 35.4076 43.8409 36.9968 42.6688 38.1689C41.4967 39.341 39.9075 40 38.2499 40H9.74988C8.09228 40 6.50303 39.341 5.33093 38.1689C4.15883 36.9968 3.49988 35.4076 3.49988 33.75V14.25C3.49988 12.5924 4.15883 11.0032 5.33093 9.83105C6.50303 8.65895 8.09227 8 9.74988 8ZM5.49988 33.75C5.49988 34.8772 5.94797 35.9579 6.745 36.7549C7.54202 37.5519 8.62271 38 9.74988 38H38.2499C39.377 38 40.4577 37.5519 41.2548 36.7549C42.0518 35.9579 42.4999 34.8772 42.4999 33.75V19H5.49988V33.75ZM31.4999 29H35.9999C36.2651 29 36.5194 29.1054 36.7069 29.293C36.8944 29.4805 36.9999 29.7348 36.9999 30C36.9999 30.2652 36.8944 30.5195 36.7069 30.707C36.5194 30.8946 36.2651 31 35.9999 31H31.4999C31.2347 31 30.9804 30.8946 30.7928 30.707C30.6053 30.5195 30.4999 30.2652 30.4999 30C30.4999 29.7348 30.6053 29.4805 30.7928 29.293C30.9804 29.1054 31.2347 29 31.4999 29ZM9.74988 10C8.62271 10 7.54202 10.4481 6.745 11.2451C5.94797 12.0421 5.49988 13.1228 5.49988 14.25V17H42.4999V14.25C42.4999 13.1228 42.0518 12.0421 41.2548 11.2451C40.4577 10.4481 39.377 10 38.2499 10H9.74988Z" fill="#4CAF4F" stroke="#4CAF4F"/>
</svg>
