<svg width="48" height="48" viewBox="0 0 48 48" fill="none" xmlns="http://www.w3.org/2000/svg">
<rect width="48" height="48" rx="8" fill="#E8F5E9"/>
<g clip-path="url(#clip0_212_1586)">
<path fill-rule="evenodd" clip-rule="evenodd" d="M10.3531 0.19458C15.8759 0.19458 20.3531 4.67173 20.3531 10.1946V0.19458H30.3531C35.8759 0.19458 40.3531 4.67173 40.3531 10.1946C40.3531 15.7174 35.8759 20.1946 30.3531 20.1946C35.8759 20.1946 40.3531 24.6718 40.3531 30.1946C40.3531 32.9369 39.2492 35.4214 37.4616 37.228L37.4242 37.2657L37.391 37.2987C35.584 39.0889 33.0977 40.1946 30.3531 40.1946C27.6272 40.1946 25.156 39.1039 23.3521 37.3351C23.3287 37.3121 23.3053 37.2889 23.282 37.2657C23.2601 37.2438 23.2383 37.2218 23.2166 37.1997C21.4455 35.3955 20.3531 32.9226 20.3531 30.1946C20.3531 35.7174 15.8759 40.1946 10.3531 40.1946C4.83024 40.1946 0.353088 35.7174 0.353088 30.1946V20.1946H10.3531C4.83024 20.1946 0.353088 15.7174 0.353088 10.1946C0.353088 4.67173 4.83024 0.19458 10.3531 0.19458ZM18.3531 10.1946C18.3531 14.6129 14.7714 18.1946 10.3531 18.1946V2.19458C14.7714 2.19458 18.3531 5.7763 18.3531 10.1946ZM38.3531 30.1946C38.3531 25.7763 34.7714 22.1946 30.3531 22.1946C25.9348 22.1946 22.3531 25.7763 22.3531 30.1946H38.3531ZM2.35309 22.1946V30.1946C2.35309 34.6129 5.93481 38.1946 10.3531 38.1946C14.7714 38.1946 18.3531 34.6129 18.3531 30.1946V22.1946H2.35309ZM22.3531 18.1946V2.19458H30.3531C34.7714 2.19458 38.3531 5.7763 38.3531 10.1946C38.3531 14.6129 34.7714 18.1946 30.3531 18.1946H22.3531Z" fill="#5417D7"/>
</g>
<defs>
<clipPath id="clip0_212_1586">
<rect width="40" height="40" fill="white" transform="translate(0.353088 0.19458)"/>
</clipPath>
</defs>
</svg>
